<svg width="14" height="10" viewBox="0 0 14 10" fill="none" xmlns="http://www.w3.org/2000/svg">
<path fill-rule="evenodd" clip-rule="evenodd" d="M5.80436 0.299292C5.41737 -0.094735 4.78423 -0.100439 4.3902 0.286551L0.299291 4.28655C0.107845 4.47458 -4.13655e-07 4.73166 -4.37114e-07 5C-4.60573e-07 5.26834 0.107845 5.52542 0.299291 5.71345L4.3902 9.71345C4.78423 10.1004 5.41737 10.0947 5.80436 9.70071C6.19135 9.30668 6.18564 8.67354 5.79162 8.28655L3.44531 6L13 6C13.5523 6 14 5.55229 14 5C14 4.44772 13.5523 4 13 4L3.44531 4L5.79162 1.71345C6.18564 1.32646 6.19135 0.693318 5.80436 0.299292Z" fill="#24272B"/>
</svg>
