<svg width="50" height="50" viewBox="0 0 50 50" fill="none" xmlns="http://www.w3.org/2000/svg">
<rect width="50" height="50" rx="6" fill="#139DFE"/>
<path fill-rule="evenodd" clip-rule="evenodd" d="M34.7313 15.2687C34.373 14.9104 33.7921 14.9104 33.4338 15.2687L25 23.7025L16.5662 15.2687C16.2079 14.9104 15.627 14.9104 15.2687 15.2687C14.9104 15.627 14.9104 16.2079 15.2687 16.5662L23.7025 25L15.2687 33.4338C14.9104 33.7921 14.9104 34.373 15.2687 34.7313C15.627 35.0896 16.2079 35.0896 16.5662 34.7313L25 26.2975L33.4338 34.7313C33.7921 35.0896 34.373 35.0896 34.7313 34.7313C35.0896 34.373 35.0896 33.7921 34.7313 33.4338L26.2975 25L34.7313 16.5662C35.0896 16.2079 35.0896 15.627 34.7313 15.2687Z" fill="white"/>
</svg>
