<svg width="24" height="24" viewBox="0 0 24 24" fill="none" xmlns="http://www.w3.org/2000/svg">
<path fill-rule="evenodd" clip-rule="evenodd" d="M21.7313 2.26872C21.373 1.91043 20.7921 1.91043 20.4338 2.26872L12 10.7025L3.56623 2.26872C3.20793 1.91043 2.62702 1.91043 2.26873 2.26872C1.91043 2.62702 1.91043 3.20793 2.26873 3.56623L10.7025 12L2.26872 20.4338C1.91043 20.7921 1.91043 21.373 2.26872 21.7313C2.62702 22.0896 3.20793 22.0896 3.56622 21.7313L12 13.2975L20.4338 21.7313C20.7921 22.0896 21.373 22.0896 21.7313 21.7313C22.0896 21.373 22.0896 20.7921 21.7313 20.4338L13.2975 12L21.7313 3.56623C22.0896 3.20793 22.0896 2.62702 21.7313 2.26872Z" fill="#EEEEEE"/>
</svg>
