<svg width="24" height="24" viewBox="0 0 24 24" fill="none" xmlns="http://www.w3.org/2000/svg">
<path fill-rule="evenodd" clip-rule="evenodd" d="M3 5C2.44772 5 2 5.44771 2 6C2 6.55228 2.44772 7 3 7L16 7L16 8C16 8.55228 16.4477 9 17 9C17.5523 9 18 8.55228 18 8L18 7L21 7C21.5523 7 22 6.55228 22 6C22 5.44772 21.5523 5 21 5L18 5L18 4C18 3.44772 17.5523 3 17 3C16.4477 3 16 3.44772 16 4L16 5L3 5ZM2 18C2 17.4477 2.44772 17 3 17L16 17L16 16C16 15.4477 16.4477 15 17 15C17.5523 15 18 15.4477 18 16L18 17L21 17C21.5523 17 22 17.4477 22 18C22 18.5523 21.5523 19 21 19L18 19L18 20C18 20.5523 17.5523 21 17 21C16.4477 21 16 20.5523 16 20L16 19L3 19C2.44772 19 2 18.5523 2 18ZM22 12C22 11.4477 21.5523 11 21 11L8 11L8 10C8 9.44771 7.55228 9 7 9C6.44772 9 6 9.44771 6 10L6 11L3 11C2.44772 11 2 11.4477 2 12C2 12.5523 2.44772 13 3 13L6 13L6 14C6 14.5523 6.44771 15 7 15C7.55228 15 8 14.5523 8 14L8 13L21 13C21.5523 13 22 12.5523 22 12Z" fill="white"/>
</svg>
