<svg width="372" height="50" viewBox="0 0 372 50" fill="none" xmlns="http://www.w3.org/2000/svg">
<g clip-path="url(#clip0_0_173)">
<path d="M82.3118 41.1439V46.3199H80.7844V45.8522H78.8581V48.8975H77.3202V45.8522H75.4043V46.3693H73.9473V41.1439H77.3202V39.4419H78.8581V41.1439H82.3118ZM77.3202 44.4282V42.5678H75.4043V44.4282H77.3202ZM80.7844 44.4282V42.5678H78.8581V44.4282H80.7844Z" fill="#139DFE"/>
<path d="M103.065 39.8005V48.8768H101.508V48.3883H96.0189V48.8768H94.541V39.8005H103.065ZM101.508 47.0553V41.1231H96.0189V47.0553H101.508ZM101.297 45.5222V46.6863H96.2561V45.5222H98.0938V44.618H96.5976V43.4149H98.0938V42.7393H96.3474V41.4843H101.159V42.7393H99.431V43.4149H100.958V44.618H100.69C100.891 44.857 101.099 45.1143 101.209 45.304L100.81 45.5222H101.297ZM99.431 45.5222H100.07C99.921 45.304 99.7412 45.0649 99.5796 44.8648L100.059 44.6154H99.431V45.5222Z" fill="#139DFE"/>
<path d="M118.11 42.9342C117.99 44.4257 117.75 45.6417 117.38 46.6161C118.258 47.2917 119.426 47.432 120.784 47.4424C121.454 47.4424 123.479 47.4424 124.277 47.4138C124.076 47.7127 123.847 48.3389 123.769 48.7286H120.745C119.137 48.7286 117.821 48.539 116.801 47.7724C116.512 48.2297 116.163 48.6091 115.764 48.8975C115.555 48.6299 115.026 48.1414 114.727 47.9621C115.185 47.6633 115.566 47.2657 115.866 46.7668C115.516 46.2498 115.227 45.6131 114.987 44.8154L116.035 44.4672C116.145 44.8362 116.275 45.1636 116.423 45.4416C116.543 45.0233 116.642 44.5452 116.713 44.0281H115.105C115.503 43.2616 115.983 42.2066 116.392 41.1906H115.065V39.946H118.311C117.94 40.8528 117.503 41.887 117.104 42.7835L117.304 42.7549L118.11 42.9342ZM119.976 41.2426H118.389V40.1669H119.976V39.4497H121.334V40.1669H123.55V41.5102H124.019V42.6042H123.55V43.9372H121.334V44.2464H123.599V45.2702H121.334V45.5898H123.889V46.7149H121.334V47.2034H119.976V46.7149H117.92V45.5898H119.976V45.2702H118.3V44.2464H119.976V43.9372H118.35V42.8614H119.976V42.6016H117.909V41.5076H119.976V41.2426ZM121.334 41.2426V41.5102H122.283V41.2426H121.334ZM122.283 42.6068H121.334V42.8666H122.283V42.6068Z" fill="#139DFE"/>
<path d="M137.528 41.4921C137.228 42.0091 136.91 42.4665 136.6 42.8251C136.321 42.5964 135.722 42.217 135.383 42.0377C136.053 41.4011 136.66 40.3462 136.991 39.3406L138.378 39.6992C138.307 39.8992 138.229 40.0967 138.138 40.2968H140.275V41.3621C140.656 40.7853 140.974 40.0889 141.164 39.3925L142.561 39.7199C142.501 39.9096 142.441 40.1071 142.361 40.2968H144.847V41.4921H143.64C143.831 41.7805 144 42.0689 144.11 42.2976L142.812 42.7757C142.681 42.4379 142.392 41.9286 142.103 41.4921H141.834C141.555 42.0091 141.245 42.4769 140.935 42.8354C140.666 42.6068 140.056 42.2274 139.718 42.0481C139.887 41.8896 140.038 41.6999 140.187 41.4921H139.128C139.277 41.7597 139.407 42.0195 139.478 42.2274L138.26 42.7835C138.161 42.4457 137.901 41.9182 137.661 41.4895H137.528V41.4921ZM143.938 47.5334C143.966 47.5334 143.998 47.523 144.018 47.5048C144.047 47.484 144.068 47.445 144.078 47.3359C144.099 47.2268 144.107 46.9981 144.118 46.7201C144.368 46.9279 144.806 47.1592 145.165 47.2761C145.144 47.6347 145.085 48.0219 145.006 48.2116C144.918 48.4012 144.798 48.539 144.608 48.6299C144.459 48.7183 144.209 48.7598 144.008 48.7598H143.429C143.161 48.7598 142.84 48.6715 142.66 48.4714C142.46 48.2531 142.371 48.0141 142.371 47.2372V46.6967L141.701 47.1644C141.553 46.8448 141.271 46.4083 140.964 46.0003C140.844 47.0761 140.414 48.1986 139.207 48.8768C139.006 48.5987 138.469 48.0609 138.188 47.8608C138.737 47.562 139.076 47.2034 139.285 46.8266C138.096 47.1254 136.819 47.4139 135.821 47.6529L135.542 46.2887C135.922 46.229 136.371 46.1484 136.861 46.0497V44.1996H135.823V42.9446H139.376V44.1996H138.268V45.7717L139.228 45.582L139.347 46.7071C139.587 46.2004 139.616 45.6521 139.616 45.135V42.8562H143.768V47.1956C143.768 47.3541 143.768 47.445 143.779 47.484C143.799 47.5126 143.818 47.5334 143.859 47.5334H143.938ZM141.571 44.7063C141.832 44.9739 142.121 45.3143 142.368 45.6417V44.1087H141.01V45.0649L141.571 44.7063Z" fill="#139DFE"/>
<path d="M156.785 44.7869C156.785 42.7861 157.335 41.1439 158.292 39.5823L159.4 40.0396C158.571 41.5129 158.211 43.1941 158.211 44.7869C158.211 46.3901 158.571 48.0609 159.4 49.5342L158.292 49.9915C157.335 48.4273 156.785 46.7955 156.785 44.7869Z" fill="#139DFE"/>
<path d="M175.604 44.21C175.265 45.135 174.796 45.9925 174.235 46.7278C174.345 47.2449 174.465 47.5437 174.606 47.5437C174.715 47.5437 174.796 47.1358 174.814 46.2212C175.083 46.5408 175.513 46.8578 175.833 47.0085C175.653 48.5415 175.294 48.9183 174.426 48.9183C173.907 48.9183 173.526 48.5208 173.237 47.8426C172.917 48.1414 172.588 48.409 172.239 48.6377C172.08 48.3986 171.699 47.9699 171.431 47.7126C171.402 48.1908 171.272 48.4688 170.933 48.6481C170.545 48.8663 170.005 48.9079 169.265 48.9079C169.215 48.5389 169.035 47.9621 168.866 47.5931C169.275 47.6139 169.734 47.6139 169.885 47.6035C170.034 47.6035 170.086 47.5645 170.086 47.4138V46.2497L168.968 46.5174L168.647 45.1246C169.056 45.0545 169.546 44.9661 170.086 44.857V43.6435H168.647V42.4093H170.086V41.5024C169.726 41.583 169.366 41.6505 169.028 41.7103C168.999 41.531 168.918 41.292 168.819 41.0633C168.73 41.3024 168.629 41.5414 168.519 41.7701V48.8845H167.14V44.2282C167 44.4179 166.861 44.5971 166.721 44.766C166.611 44.4075 166.262 43.563 166.043 43.1732C166.812 42.2664 167.521 40.8554 167.93 39.4419L169.267 39.8395C169.197 40.0577 169.119 40.2864 169.038 40.515C169.966 40.2864 170.915 39.9772 171.564 39.6602L172.442 40.6268C172.442 40.289 172.442 39.9512 172.442 39.6108H173.85C173.821 40.5358 173.821 41.492 173.85 42.4067H175.487V43.6409H173.899C173.92 44.0281 173.949 44.4075 173.98 44.766C174.121 44.4776 174.241 44.1892 174.34 43.8904L175.604 44.21ZM171.441 42.4067H172.479C172.458 41.8896 172.45 41.3517 172.45 40.8242C172.129 40.9542 171.791 41.0633 171.441 41.162V42.4067ZM171.441 47.5619C171.95 47.2527 172.419 46.8656 172.838 46.4186C172.679 45.6131 172.588 44.6569 172.528 43.6409H171.441V44.5764L172.359 44.3763L172.5 45.6599C172.15 45.7482 171.801 45.8392 171.441 45.9275V47.4294V47.5619ZM174.595 42.1183C174.507 41.6298 174.215 40.8554 173.946 40.2682L174.994 39.8498C175.283 40.4059 175.604 41.1543 175.713 41.6324L174.595 42.1183Z" fill="#139DFE"/>
<path d="M195.719 43.0355H191.048L191.736 43.2746C191.647 43.4045 191.546 43.524 191.447 43.6539H194.152L194.402 43.6046L195.39 44.2022C194.113 46.9877 191.327 48.3727 188.141 48.9391C188.001 48.5805 187.602 47.9335 187.312 47.6451C188.431 47.497 189.479 47.2476 190.407 46.8994C190.036 46.5304 189.609 46.1328 189.228 45.8236L190.326 45.1273C190.745 45.4547 191.264 45.8834 191.684 46.2809C192.322 45.912 192.862 45.4547 193.282 44.9064H190.146C189.557 45.3741 188.908 45.7821 188.238 46.0705C188.029 45.7509 187.599 45.2234 187.328 44.9661C188.436 44.5478 189.515 43.7917 190.115 43.0355H187.604V39.8213H195.721V43.0355H195.719ZM189.859 41.014H188.991V41.8299H189.859V41.014ZM192.046 41.014H191.178V41.8299H192.046V41.014ZM194.251 41.014H193.365V41.8299H194.254V41.014H194.251Z" fill="#139DFE"/>
<path d="M208.827 46.5485L210.165 46.9356C209.815 47.6528 209.226 48.4193 208.707 48.8766C208.447 48.6376 207.889 48.2296 207.561 48.04C208.061 47.671 208.53 47.0941 208.799 46.5485H207.641V45.2934H208.481V41.7804H207.751V40.5254H208.481V39.5509H209.779V40.5254H210.847V39.5509H212.174V40.5254H212.703V41.7804H212.174V45.2934H212.724V46.5485H208.827ZM209.776 41.7804V42.1987H210.845V41.7804H209.776ZM209.776 43.7318H210.845V43.2849H209.776V43.7318ZM209.776 45.2934H210.845V44.8153H209.776V45.2934ZM214.398 42.695H217.132V44.028H216.373V48.8844H215.005V44.028H214.395V44.2879C214.395 46.1379 214.176 47.8009 212.948 49.1547C212.709 48.8455 212.26 48.4583 211.929 48.2193C212 48.1387 212.06 48.0607 212.119 47.9802L211.1 48.4687C210.952 48.0997 210.582 47.5125 210.282 47.0863L211.439 46.5693C211.718 46.9278 212.067 47.406 212.268 47.7645C212.956 46.6992 213.066 45.5143 213.066 44.2827V40.5617C214.134 40.2733 215.271 39.816 215.99 39.3665L217.148 40.4006C216.329 40.8086 215.341 41.1568 214.392 41.4244V42.695H214.398Z" fill="#139DFE"/>
<path d="M226.907 44.1684C226.907 46.3978 225.958 48.0011 224.95 48.9755L223.803 48.487C224.72 47.4814 225.549 46.1484 225.549 44.1684C225.549 42.1884 224.72 40.8554 223.803 39.8498L224.95 39.3613C225.958 40.3383 226.907 41.939 226.907 44.1684Z" fill="#139DFE"/>
<path d="M240.506 41.9495C240.407 42.1496 240.306 42.3367 240.207 42.5264H244.75V47.4036C244.75 48.0714 244.63 48.4585 244.182 48.6768C243.741 48.8951 243.162 48.9159 242.375 48.9159C242.326 48.5183 242.135 47.8999 241.945 47.5231C242.375 47.5517 242.954 47.5517 243.113 47.5517C243.272 47.5517 243.332 47.5023 243.332 47.3724V47.0138H240.027V48.8847H238.588V44.7844C238.249 45.143 237.879 45.46 237.47 45.7406C237.251 45.421 236.792 44.8935 236.5 44.6259C237.498 43.9893 238.278 43.0149 238.856 41.9495H236.839V40.5957H239.474C239.615 40.2086 239.735 39.8084 239.834 39.4316L241.34 39.7694C241.252 40.0475 241.161 40.3177 241.062 40.5957H245.834V41.9495H240.506ZM243.332 43.7814H240.027V44.1997H243.332V43.7814ZM243.332 45.8211V45.3924H240.027V45.8211H243.332Z" fill="#139DFE"/>
<path d="M261.259 40.2967C261.019 41.1516 260.72 42.1675 260.462 42.9237C261.001 43.6902 261.1 44.3866 261.1 44.953C261.1 45.6598 260.959 46.0963 260.621 46.3562C260.451 46.4861 260.25 46.5563 260.021 46.5952C259.852 46.6238 259.622 46.6238 259.382 46.6238C259.382 46.2756 259.273 45.7378 259.083 45.3896C259.223 45.4 259.333 45.4104 259.432 45.4C259.521 45.4 259.612 45.3792 259.682 45.3298C259.781 45.2493 259.831 45.0622 259.831 44.7815C259.831 44.3424 259.742 43.7162 259.252 43.0692C259.401 42.5131 259.58 41.7362 259.711 41.0996H258.991V48.8533H257.732V39.816H260.11L260.31 39.7666L261.259 40.2967ZM266.631 45.5221C266.222 45.8313 265.782 46.1587 265.404 46.4289C265.784 46.9356 266.261 47.354 266.85 47.632C266.53 47.91 266.092 48.4869 265.881 48.8766C265.073 48.3985 264.483 47.7126 264.043 46.8473C264.033 47.2552 264.053 47.8321 264.103 48.1517C262.195 48.609 261.778 48.7675 261.517 48.939C261.418 48.6194 261.118 48.0633 260.907 47.8243C261.147 47.6762 261.426 47.3566 261.426 46.8681V39.8212H266.047V44.5295H265.719L266.631 45.5221ZM262.847 41.0528V41.5803H264.642V41.0528H262.847ZM262.847 43.2926H264.642V42.7366H262.847V43.2926ZM264.035 46.8369C263.696 46.1613 263.436 45.3844 263.238 44.5269H262.849V47.0733L264.035 46.8369ZM264.483 44.5269C264.572 44.8153 264.674 45.1037 264.794 45.374C265.104 45.1063 265.432 44.7867 265.662 44.5269H264.483Z" fill="#139DFE"/>
<path d="M287.307 42.5679V43.6618H278.223V42.5679H282.036V42.3002H279.26V41.344H282.036V41.066H278.801V40.0006H282.036V39.4446H283.532V40.0006H286.936V41.066H283.532V41.344H286.457V42.3002H283.532V42.5679H287.307ZM283.532 46.0991C283.532 47.0839 282.883 48.209 279.32 48.8846C279.14 48.5754 278.702 48.0375 278.361 47.7491C281.676 47.2918 282.005 46.585 282.005 46.0575V45.33H283.532V46.0991ZM284.781 46.8657V45.1247H280.717V47.0164H279.26V43.9216H286.319V46.8683H284.781V46.8657ZM283.733 46.5876C284.802 46.8475 286.407 47.3827 287.226 47.7907L286.517 48.9756C285.758 48.5572 284.192 47.9596 283.074 47.6322L283.733 46.5876Z" fill="#139DFE"/>
<path d="M305.817 44.935V47.1931H308.063V48.5754H302.173V47.1931H304.339V44.935H301.753V43.5423H304.339V41.5727C303.7 41.6714 303.051 41.752 302.441 41.8117C302.392 41.5129 302.233 41.066 302.092 40.736C301.902 41.1336 301.703 41.5415 301.482 41.9391V48.8742H300.043V44.0776C299.842 44.327 299.634 44.5557 299.425 44.7635C299.285 44.405 298.847 43.5891 298.586 43.2201C299.545 42.334 300.452 40.9101 300.981 39.4888L302.42 39.9461C302.339 40.1462 302.261 40.3436 302.17 40.5437C303.888 40.3358 305.705 39.9669 306.932 39.5199L307.991 40.7438C307.321 40.9621 306.583 41.1518 305.814 41.2999V43.5397H308.139V44.9324H305.817V44.935Z" fill="#139DFE"/>
<path d="M323.625 40.0786C322.976 41.7 321.907 43.2928 320.88 44.2673C320.58 43.9788 319.892 43.4617 319.512 43.2227C320.56 42.4172 321.508 41.0322 322.017 39.6291L323.625 40.0786ZM326.44 44.6674C327.248 45.7821 328.158 47.2061 328.645 48.1597L327.178 48.947C327.029 48.6196 326.828 48.2116 326.589 47.7829C321.957 48.222 321.209 48.261 320.648 48.4897C320.567 48.1805 320.288 47.3853 320.09 46.9566C320.45 46.8579 320.669 46.637 321.06 46.2005C321.49 45.7613 322.697 44.0516 323.406 42.3678L325.043 43.0538C324.355 44.3686 323.466 45.621 322.577 46.6552L325.781 46.4265C325.53 46.029 325.28 45.6392 325.051 45.291L326.44 44.6674ZM326.252 39.5615C326.821 40.7256 327.981 42.1184 328.948 43.0044C328.567 43.2928 328.02 43.8593 327.741 44.2491C326.742 43.1655 325.585 41.5909 324.816 40.1384L326.252 39.5615Z" fill="#139DFE"/>
<path d="M349.044 47.1644C349.044 47.9414 348.914 48.3675 348.445 48.6169C347.986 48.8664 347.347 48.9054 346.427 48.895C346.388 48.4662 346.167 47.7413 345.968 47.3333C346.466 47.3723 347.108 47.3723 347.295 47.3619C347.475 47.3619 347.545 47.3125 347.545 47.1333V41.3908H340.656V40.0188H349.042V47.1644H349.044ZM346.618 43.1629H340.768V41.9078H346.618V43.1629ZM342.635 47.2034V47.9206H341.217V43.7111H346.187V47.2034H342.635ZM342.635 44.9454V45.9692H344.762V44.9454H342.635Z" fill="#139DFE"/>
<path d="M74.2148 14.3256C74.2148 6.41343 78.1195 1.93896 83.8645 1.93896C89.6094 1.93896 93.514 6.44721 93.514 14.3256C93.514 22.2378 89.6094 26.9721 83.8645 26.9721C78.1195 26.9695 74.2148 22.2352 74.2148 14.3256ZM88.3634 14.3256C88.3634 9.65625 86.6379 6.89934 83.8645 6.89934C81.091 6.89934 79.3941 9.65625 79.3941 14.3256C79.3941 19.0261 81.091 21.9779 83.8645 21.9779C86.6379 21.9753 88.3634 19.0261 88.3634 14.3256Z" fill="#139DFE"/>
<path d="M96.3457 14.3256C96.3457 6.41343 100.25 1.93896 105.995 1.93896C111.74 1.93896 115.645 6.44721 115.645 14.3256C115.645 22.2378 111.74 26.9721 105.995 26.9721C100.25 26.9721 96.3457 22.2352 96.3457 14.3256ZM110.494 14.3256C110.494 9.65625 108.769 6.89934 105.995 6.89934C103.222 6.89934 101.525 9.65625 101.525 14.3256C101.525 19.0261 103.222 21.9779 105.995 21.9779C108.766 21.9753 110.494 19.0261 110.494 14.3256Z" fill="#139DFE"/>
<path d="M118.473 14.3256C118.473 6.41343 122.377 1.93896 128.122 1.93896C133.867 1.93896 137.772 6.44721 137.772 14.3256C137.772 22.2378 133.867 26.9721 128.122 26.9721C122.377 26.9695 118.473 22.2352 118.473 14.3256ZM132.621 14.3256C132.621 9.65625 130.896 6.89934 128.122 6.89934C125.349 6.89934 123.652 9.65625 123.652 14.3256C123.652 19.0261 125.349 21.9779 128.122 21.9779C130.896 21.9753 132.621 19.0261 132.621 14.3256Z" fill="#139DFE"/>
<path d="M147.082 19.1873V15.1338L151.44 9.84863L153.281 11.5662L149.741 17.1788L153.278 22.7887L151.438 24.4751L147.082 19.1873ZM153.307 19.1873V15.1338L157.665 9.84863L159.505 11.5662L155.968 17.1788L159.505 22.7887L157.665 24.4751L153.307 19.1873Z" fill="#139DFE"/>
<path d="M181.549 26.5147H176.258L170.768 16.399H168.647V26.5147H163.582V2.391H168.647V11.7609H170.797L173.484 6.24965C175.069 3.07179 176.738 1.93628 179.201 1.93628C179.795 1.93628 180.501 2.00124 180.984 2.26108L180.134 7.45011C179.795 7.32019 179.428 7.32019 179.229 7.32019C178.239 7.32019 177.702 7.8061 176.938 9.39632L174.73 13.7097L181.549 26.5147Z" fill="#139DFE"/>
<path d="M183.387 8.06592H188.256V12.8652C188.256 14.6815 188 17.1448 187.802 19.382H187.914C188.423 18.2803 189.272 16.5939 189.755 15.5234L193.688 8.06592H198.273V26.5147H193.406V21.7154C193.406 19.8991 193.662 17.467 193.86 15.1986H193.748C193.211 16.3003 192.419 18.0204 191.908 19.0572L187.946 26.5147H183.389V8.06592H183.387Z" fill="#139DFE"/>
<path d="M205.686 12.5742H201.018V8.06592H215.393V12.5742H210.725V26.5173H205.689V12.5742H205.686Z" fill="#139DFE"/>
<path d="M217.457 21.3595C217.457 17.4697 220.116 15.3598 226.4 14.5829C226.288 13.0914 225.608 12.2157 223.966 12.2157C222.691 12.2157 221.362 12.8004 219.748 13.8371L217.994 10.0434C220.116 8.58314 222.41 7.61133 224.928 7.61133C229.088 7.61133 231.436 10.2695 231.436 16.0406V26.5148H227.333L226.966 24.6673H226.854C225.524 26.0289 224.023 26.9695 222.24 26.9695C219.269 26.9695 217.457 24.4413 217.457 21.3595ZM226.4 21.0373V18.0855C223.259 18.5714 222.24 19.6082 222.24 20.9074C222.24 21.978 222.92 22.495 223.966 22.495C224.985 22.495 225.665 21.9442 226.4 21.0373Z" fill="#139DFE"/>
<path d="M235.201 8.06604H240.068V12.8653C240.068 14.6816 239.812 17.1449 239.614 19.3821H239.726C240.234 18.2804 241.084 16.594 241.566 15.5235L245.5 8.06604H250.085V26.5148H245.218V21.7155C245.218 19.8992 245.474 17.4671 245.672 15.1987H245.56C245.023 16.3004 244.23 18.0206 243.72 19.0573L239.757 26.5148H235.201V8.06604ZM237.154 -0.849121H241.058C241.144 1.19323 241.512 2.23 242.812 2.23C244.087 2.23 244.509 1.19323 244.567 -0.849121H248.443C248.385 2.94456 246.548 5.27794 242.812 5.27794C239.077 5.27794 237.268 2.94456 237.154 -0.849121Z" fill="#139DFE"/>
<path d="M253.451 14.5828C253.451 6.54067 258.148 1.93628 263.497 1.93628C266.242 1.93628 268.449 3.39659 269.894 5.08036L267.235 8.7779C266.187 7.67618 265.084 6.89665 263.586 6.89665C260.87 6.89665 258.633 9.68475 258.633 14.3879C258.633 19.1871 260.557 21.9752 263.528 21.9752C265.199 21.9752 266.557 21.0034 267.548 19.7692L270.206 23.4018C268.423 25.7689 266.075 26.9694 263.33 26.9694C257.979 26.9694 253.451 22.7548 253.451 14.5828Z" fill="#139DFE"/>
<path d="M276.262 12.5742H271.594V8.06592H285.969V12.5742H281.301V26.5173H276.265V12.5742H276.262Z" fill="#139DFE"/>
<path d="M288.74 8.06605H292.843L293.182 9.84856H293.294C294.569 8.55195 296.151 7.61133 297.822 7.61133C301.669 7.61133 304.103 11.3089 304.103 16.9812C304.103 23.3369 300.793 26.9669 297.339 26.9669C295.981 26.9669 294.681 26.2861 293.604 25.0545L293.745 27.9413V33.2265H288.74V8.06605ZM298.927 17.0799C298.927 13.8371 298.106 12.3145 296.323 12.3145C295.39 12.3145 294.626 12.8004 293.747 13.8709V21.1673C294.54 21.978 295.39 22.2378 296.153 22.2378C297.683 22.2352 298.927 20.7775 298.927 17.0799Z" fill="#139DFE"/>
<path d="M306.342 17.3087C306.342 11.1816 310.134 7.61401 314.237 7.61401C318.311 7.61401 322.104 11.1816 322.104 17.3087C322.104 23.4046 318.311 26.9722 314.237 26.9722C310.132 26.9696 306.342 23.4046 306.342 17.3087ZM316.953 17.3087C316.953 14.2296 316.103 12.2834 314.237 12.2834C312.342 12.2834 311.492 14.2296 311.492 17.3087C311.492 20.3566 312.342 22.3028 314.237 22.3028C316.103 22.3002 316.953 20.3566 316.953 17.3087Z" fill="#139DFE"/>
<path d="M325.16 8.06604H330.027V12.8653C330.027 14.6816 329.771 17.1449 329.573 19.3821H329.685C330.193 18.2804 331.043 16.594 331.525 15.5235L335.459 8.06604H340.044V26.5148H335.177V21.7155C335.177 19.8992 335.433 17.4671 335.631 15.1987H335.519C334.982 16.3004 334.189 18.0206 333.678 19.0573L329.716 26.5148H325.16V8.06604ZM327.112 -0.849121H331.017C331.103 1.19323 331.471 2.23 332.771 2.23C334.046 2.23 334.468 1.19323 334.526 -0.849121H338.402C338.344 2.94456 336.507 5.27794 332.771 5.27794C329.036 5.27794 327.227 2.94456 327.112 -0.849121Z" fill="#139DFE"/>
<path d="M343.695 22.7861L347.232 17.1788L343.695 11.5688L345.536 9.85123L349.894 15.1364V19.1899L345.536 24.4751L343.695 22.7861ZM349.92 22.7861L353.457 17.1762L349.92 11.5662L351.76 9.84863L356.118 15.1338V19.1873L351.76 24.4725L349.92 22.7861Z" fill="#139DFE"/>
<path d="M49.0906 -0.0175781H-0.00195312V48.9209H49.0906V-0.0175781Z" fill="#139DFE"/>
<path d="M40.9084 25.9353H38.6772H37.1914V30.3864V37.7997V42.2455H38.6772H40.9084H42.3968V37.7997V34.8323H40.9084V37.7997H38.6772V30.3864H40.9084V33.3512H42.3968V30.3864V25.9353H40.9084Z" fill="white"/>
<path d="M29.0098 6.65503V11.1035V25.9353V30.3863V37.7996V42.2455H30.4955H35.7035V37.7996H30.4955V30.3863H35.7035V25.9353H30.4955V11.1035H35.7035V6.65503H30.4955H29.0098Z" fill="white"/>
<path d="M23.0587 6.65503H21.5703V11.1035V37.7996V40.8034V42.2455H26.0328H27.5212V37.7996V25.9353H26.0328V37.7996H23.0587V11.1035H26.0328V19.2625H27.5212V11.1035V6.65503H26.0328H23.0587Z" fill="white"/>
<path d="M14.8757 6.65503H13.3848V11.1035V25.9353V30.3863H14.8757H18.5953V37.7996H14.8757V34.8322H13.3848V37.7996V42.2455H14.8757H18.5953H20.0837V37.7996V30.3863V25.9353H18.5953H14.8757V11.1035H18.5953V19.2625H20.0837V11.1035V6.65503H18.5953H14.8757Z" fill="white"/>
<path d="M8.18107 25.9353H6.69531V30.3864V37.7997V42.2455H8.18107H10.4123H11.9007V37.7997V34.8323H10.4123V37.7997H8.18107V30.3864H10.4123V33.3512H11.9007V30.3864V25.9353H10.4123H8.18107Z" fill="white"/>
</g>
<defs>
<clipPath id="clip0_0_173">
<rect width="372" height="50" fill="white"/>
</clipPath>
</defs>
</svg>
