<svg width="285" height="39" viewBox="0 0 285 39" fill="none" xmlns="http://www.w3.org/2000/svg">
<g clip-path="url(#clip0_0_58)">
<path d="M63.0607 32.0922V36.1295H61.8904V35.7647H60.4147V38.14H59.2364V35.7647H57.7687V36.168H56.6523V32.0922H59.2364V30.7646H60.4147V32.0922H63.0607ZM59.2364 34.654V33.2028H57.7687V34.654H59.2364ZM61.8904 34.654V33.2028H60.4147V34.654H61.8904Z" fill="white"/>
<path d="M78.9598 31.0444V38.1239H77.7676V37.7428H73.562V38.1239H72.4297V31.0444H78.9598ZM77.7676 36.7031V32.076H73.562V36.7031H77.7676ZM77.6059 35.5073V36.4153H73.7437V35.5073H75.1516V34.802H74.0053V33.8636H75.1516V33.3366H73.8136V32.3577H77.5V33.3366H76.176V33.8636H77.3463V34.802H77.1406C77.2943 34.9885 77.4541 35.1891 77.538 35.3371L77.2324 35.5073H77.6059ZM76.176 35.5073H76.6653C76.5515 35.3371 76.4137 35.1506 76.2899 34.9945L76.6573 34.8H76.176V35.5073Z" fill="white"/>
<path d="M90.4866 33.4886C90.3948 34.652 90.211 35.6005 89.9275 36.3606C90.6004 36.8875 91.4951 36.997 92.5355 37.0051C93.0487 37.0051 94.6004 37.0051 95.2115 36.9828C95.0577 37.2159 94.882 37.7043 94.8221 38.0083H92.5056C91.2734 38.0083 90.265 37.8604 89.4841 37.2625C89.2625 37.6192 88.9949 37.9151 88.6893 38.1401C88.5296 37.9313 88.1242 37.5503 87.8945 37.4104C88.246 37.1773 88.5376 36.8673 88.7672 36.4781C88.4996 36.0748 88.278 35.5782 88.0942 34.956L88.897 34.6844C88.9809 34.9722 89.0807 35.2276 89.1946 35.4445C89.2864 35.1182 89.3623 34.7452 89.4162 34.3419H88.1841C88.4896 33.744 88.8571 32.9211 89.1706 32.1287H88.1541V31.1579H90.6404C90.3568 31.8652 90.0213 32.6719 89.7158 33.3711L89.8695 33.3488L90.4866 33.4886ZM91.9165 32.1692H90.7003V31.3301H91.9165V30.7708H92.9569V31.3301H94.6543V32.378H95.0138V33.2312H94.6543V34.271H92.9569V34.5122H94.6923V35.3107H92.9569V35.56H94.9139V36.4376H92.9569V36.8186H91.9165V36.4376H90.3408V35.56H91.9165V35.3107H90.6324V34.5122H91.9165V34.271H90.6703V33.4319H91.9165V33.2292H90.3329V32.3759H91.9165V32.1692ZM92.9569 32.1692V32.378H93.6838V32.1692H92.9569ZM93.6838 33.2333H92.9569V33.4359H93.6838V33.2333Z" fill="white"/>
<path d="M105.362 32.3638C105.133 32.7671 104.889 33.1238 104.651 33.4035C104.438 33.2251 103.978 32.9292 103.719 32.7894C104.232 32.2928 104.697 31.47 104.951 30.6856L106.013 30.9653C105.959 31.1214 105.899 31.2754 105.83 31.4315H107.467V32.2624C107.759 31.8125 108.002 31.2693 108.148 30.7261L109.218 30.9815C109.173 31.1295 109.127 31.2835 109.065 31.4315H110.97V32.3638H110.045C110.191 32.5887 110.321 32.8137 110.405 32.9921L109.41 33.365C109.31 33.1015 109.089 32.7043 108.867 32.3638H108.661C108.448 32.7671 108.21 33.1319 107.972 33.4116C107.767 33.2332 107.299 32.9373 107.04 32.7975C107.17 32.6739 107.285 32.5259 107.399 32.3638H106.588C106.702 32.5725 106.802 32.7752 106.856 32.9373L105.923 33.3711C105.848 33.1076 105.648 32.6962 105.464 32.3617H105.362V32.3638ZM110.273 37.076C110.295 37.076 110.319 37.0679 110.335 37.0537C110.357 37.0375 110.373 37.0071 110.381 36.922C110.397 36.8368 110.403 36.6585 110.411 36.4416C110.602 36.6038 110.938 36.7841 111.213 36.8753C111.197 37.155 111.152 37.457 111.092 37.605C111.024 37.7529 110.932 37.8603 110.786 37.9313C110.672 38.0002 110.481 38.0326 110.327 38.0326H109.883C109.678 38.0326 109.432 37.9637 109.294 37.8077C109.141 37.6374 109.073 37.4509 109.073 36.8449V36.4234L108.559 36.7882C108.446 36.5389 108.23 36.1984 107.994 35.8802C107.902 36.7193 107.573 37.5948 106.648 38.1238C106.495 37.907 106.083 37.4874 105.868 37.3314C106.289 37.0983 106.548 36.8186 106.708 36.5247C105.798 36.7578 104.819 36.9828 104.054 37.1692L103.841 36.1052C104.132 36.0586 104.476 35.9957 104.851 35.9187V34.4757H104.056V33.4967H106.778V34.4757H105.929V35.7018L106.664 35.5539L106.756 36.4315C106.94 36.0363 106.962 35.6086 106.962 35.2053V33.4278H110.143V36.8125C110.143 36.9361 110.143 37.0071 110.151 37.0375C110.167 37.0598 110.181 37.076 110.213 37.076H110.273ZM108.46 34.8709C108.659 35.0796 108.881 35.3451 109.071 35.6005V34.4047H108.03V35.1506L108.46 34.8709Z" fill="white"/>
<path d="M120.117 34.9337C120.117 33.3731 120.539 32.0922 121.271 30.8741L122.12 31.2308C121.485 32.38 121.21 33.6913 121.21 34.9337C121.21 36.1842 121.485 37.4874 122.12 38.6366L121.271 38.9933C120.539 37.7732 120.117 36.5004 120.117 34.9337Z" fill="white"/>
<path d="M134.534 34.4838C134.274 35.2053 133.915 35.8741 133.486 36.4477C133.569 36.851 133.661 37.0841 133.769 37.0841C133.853 37.0841 133.915 36.7659 133.929 36.0525C134.135 36.3018 134.464 36.549 134.71 36.6666C134.572 37.8624 134.296 38.1563 133.631 38.1563C133.234 38.1563 132.942 37.8462 132.721 37.3172C132.475 37.5503 132.223 37.759 131.956 37.9374C131.834 37.7509 131.542 37.4165 131.337 37.2158C131.315 37.5888 131.215 37.8056 130.955 37.9455C130.658 38.1157 130.244 38.1481 129.677 38.1481C129.639 37.8603 129.502 37.4104 129.372 37.1226C129.685 37.1388 130.037 37.1388 130.153 37.1307C130.266 37.1307 130.306 37.1003 130.306 36.9828V36.0748L129.45 36.2835L129.204 35.1972C129.518 35.1425 129.893 35.0735 130.306 34.9884V34.0419H129.204V33.0792H130.306V32.3719C130.031 32.4347 129.755 32.4874 129.496 32.534C129.474 32.3942 129.412 32.2077 129.336 32.0293C129.268 32.2158 129.19 32.4023 129.106 32.5806V38.1299H128.05V34.4979C127.942 34.6459 127.836 34.7857 127.728 34.9175C127.644 34.6378 127.377 33.9791 127.209 33.6751C127.798 32.9677 128.341 31.8672 128.655 30.7646L129.679 31.0747C129.625 31.245 129.565 31.4233 129.504 31.6017C130.214 31.4233 130.941 31.1822 131.439 30.9349L132.112 31.6888C132.112 31.4254 132.112 31.1619 132.112 30.8964H133.19C133.168 31.6179 133.168 32.3638 133.19 33.0772H134.444V34.0399H133.228C133.244 34.3419 133.266 34.6378 133.29 34.9175C133.398 34.6925 133.49 34.4675 133.565 34.2345L134.534 34.4838ZM131.345 33.0772H132.14C132.124 32.6739 132.118 32.2543 132.118 31.8429C131.872 31.9442 131.612 32.0293 131.345 32.1064V33.0772ZM131.345 37.0983C131.734 36.8571 132.094 36.5551 132.415 36.2065C132.293 35.5782 132.223 34.8324 132.177 34.0399H131.345V34.7695L132.048 34.6135L132.156 35.6147C131.888 35.6836 131.62 35.7545 131.345 35.8234V36.9949V37.0983ZM133.761 32.8522C133.693 32.4712 133.47 31.8672 133.264 31.4092L134.067 31.0828C134.288 31.5166 134.534 32.1003 134.618 32.4732L133.761 32.8522Z" fill="white"/>
<path d="M149.946 33.5677H146.368L146.895 33.7541C146.827 33.8555 146.749 33.9487 146.673 34.05H148.746L148.938 34.0115L149.695 34.4777C148.716 36.6504 146.581 37.7306 144.141 38.1725C144.033 37.8928 143.728 37.3881 143.506 37.1631C144.363 37.0476 145.165 36.853 145.876 36.5815C145.593 36.2937 145.265 35.9836 144.974 35.7424L145.814 35.1992C146.136 35.4546 146.533 35.789 146.855 36.0991C147.344 35.8113 147.757 35.4546 148.079 35.0269H145.677C145.225 35.3917 144.728 35.7099 144.215 35.9349C144.055 35.6856 143.726 35.2742 143.518 35.0735C144.367 34.7472 145.193 34.1574 145.653 33.5677H143.73V31.0605H149.948V33.5677H149.946ZM145.457 31.9908H144.792V32.6272H145.457V31.9908ZM147.132 31.9908H146.467V32.6272H147.132V31.9908ZM148.822 31.9908H148.143V32.6272H148.824V31.9908H148.822Z" fill="white"/>
<path d="M159.988 36.3078L161.013 36.6098C160.745 37.1692 160.294 37.7671 159.896 38.1238C159.697 37.9374 159.269 37.6192 159.018 37.4712C159.401 37.1834 159.76 36.7335 159.966 36.3078H159.079V35.3289H159.723V32.5887H159.163V31.6098H159.723V30.8498H160.717V31.6098H161.536V30.8498H162.552V31.6098H162.958V32.5887H162.552V35.3289H162.974V36.3078H159.988ZM160.715 32.5887V32.915H161.534V32.5887H160.715ZM160.715 34.1108H161.534V33.7622H160.715V34.1108ZM160.715 35.3289H161.534V34.956H160.715V35.3289ZM164.256 33.3022H166.351V34.3419H165.769V38.1299H164.721V34.3419H164.254V34.5446C164.254 35.9876 164.086 37.2847 163.145 38.3407C162.962 38.0995 162.618 37.7975 162.365 37.6111C162.418 37.5482 162.464 37.4874 162.51 37.4246L161.73 37.8056C161.616 37.5178 161.332 37.0598 161.102 36.7274L161.989 36.3241C162.203 36.6038 162.47 36.9767 162.624 37.2564C163.151 36.4254 163.235 35.5012 163.235 34.5405V31.6382C164.054 31.4132 164.925 31.0565 165.476 30.7059L166.363 31.5125C165.735 31.8307 164.979 32.1023 164.252 32.3111V33.3022H164.256Z" fill="white"/>
<path d="M173.839 34.4514C173.839 36.1903 173.112 37.4408 172.34 38.2009L171.461 37.8198C172.164 37.0355 172.799 35.9957 172.799 34.4514C172.799 32.907 172.164 31.8672 171.461 31.0829L172.34 30.7018C173.112 31.4639 173.839 32.7124 173.839 34.4514Z" fill="white"/>
<path d="M184.257 32.7205C184.181 32.8765 184.103 33.0225 184.027 33.1704H187.508V36.9746C187.508 37.4955 187.416 37.7975 187.073 37.9678C186.735 38.138 186.292 38.1542 185.689 38.1542C185.651 37.8441 185.505 37.3618 185.359 37.0679C185.689 37.0902 186.132 37.0902 186.254 37.0902C186.376 37.0902 186.422 37.0517 186.422 36.9503V36.6706H183.889V38.1299H182.787V34.9317C182.527 35.2114 182.244 35.4586 181.93 35.6775C181.763 35.4282 181.411 35.0168 181.188 34.808C181.952 34.3115 182.549 33.5514 182.993 32.7205H181.447V31.6645H183.466C183.574 31.3625 183.666 31.0504 183.742 30.7565L184.896 31.02C184.828 31.2369 184.758 31.4477 184.682 31.6645H188.339V32.7205H184.257ZM186.422 34.1493H183.889V34.4756H186.422V34.1493ZM186.422 35.7403V35.4059H183.889V35.7403H186.422Z" fill="white"/>
<path d="M200.157 31.4315C199.973 32.0983 199.744 32.8907 199.546 33.4805C199.959 34.0784 200.035 34.6216 200.035 35.0634C200.035 35.6147 199.927 35.9552 199.668 36.1579C199.538 36.2592 199.384 36.3139 199.208 36.3443C199.079 36.3666 198.903 36.3666 198.719 36.3666C198.719 36.095 198.635 35.6755 198.49 35.4039C198.597 35.412 198.681 35.4201 198.757 35.412C198.825 35.412 198.895 35.3958 198.949 35.3573C199.025 35.2945 199.063 35.1485 199.063 34.9297C199.063 34.5871 198.995 34.0987 198.619 33.594C198.733 33.1603 198.871 32.5543 198.971 32.0577H198.42V38.1056H197.455V31.0565H199.276L199.43 31.018L200.157 31.4315ZM204.273 35.5073C203.959 35.7485 203.622 36.0038 203.332 36.2146C203.624 36.6098 203.989 36.9362 204.441 37.153C204.195 37.3699 203.859 37.8198 203.698 38.1238C203.079 37.7509 202.627 37.2158 202.29 36.5409C202.282 36.8591 202.298 37.3091 202.336 37.5584C200.874 37.9151 200.554 38.0387 200.355 38.1725C200.279 37.9232 200.049 37.4895 199.887 37.303C200.071 37.1875 200.285 36.9382 200.285 36.5571V31.0606H203.825V34.7331H203.574L204.273 35.5073ZM201.373 32.0213V32.4327H202.749V32.0213H201.373ZM201.373 33.7683H202.749V33.3346H201.373V33.7683ZM202.284 36.5328C202.024 36.0059 201.824 35.3999 201.673 34.731H201.375V36.7173L202.284 36.5328ZM202.627 34.731C202.695 34.956 202.773 35.181 202.865 35.3918C203.103 35.183 203.354 34.9337 203.53 34.731H202.627Z" fill="white"/>
<path d="M220.114 33.2028V34.0561H213.154V33.2028H216.076V32.9941H213.949V32.2482H216.076V32.0314H213.598V31.2004H216.076V30.7667H217.222V31.2004H219.83V32.0314H217.222V32.2482H219.463V32.9941H217.222V33.2028H220.114ZM217.222 35.9572C217.222 36.7253 216.725 37.6029 213.995 38.1299C213.857 37.8887 213.522 37.4692 213.26 37.2442C215.8 36.8875 216.052 36.3362 216.052 35.9248V35.3573H217.222V35.9572ZM218.179 36.5551V35.1972H215.065V36.6727H213.949V34.2588H219.357V36.5571H218.179V36.5551ZM217.376 36.3382C218.195 36.5409 219.425 36.9584 220.052 37.2766L219.509 38.2008C218.928 37.8745 217.727 37.4084 216.871 37.153L217.376 36.3382Z" fill="white"/>
<path d="M234.294 35.0492V36.8105H236.015V37.8887H231.502V36.8105H233.161V35.0492H231.18V33.9629H233.161V32.4266C232.672 32.5036 232.175 32.5665 231.707 32.6131C231.669 32.38 231.548 32.0314 231.44 31.774C231.294 32.0841 231.142 32.4023 230.973 32.7124V38.1218H229.87V34.3804C229.716 34.575 229.557 34.7533 229.397 34.9155C229.289 34.6358 228.954 33.9994 228.754 33.7116C229.489 33.0204 230.184 31.9098 230.589 30.8011L231.691 31.1579C231.63 31.3139 231.57 31.4679 231.5 31.624C232.816 31.4619 234.208 31.1741 235.148 30.8255L235.959 31.7801C235.446 31.9503 234.881 32.0983 234.292 32.2138V33.9609H236.073V35.0472H234.294V35.0492Z" fill="white"/>
<path d="M247.938 31.2612C247.441 32.5259 246.622 33.7683 245.836 34.5284C245.606 34.3034 245.079 33.9001 244.787 33.7136C245.59 33.0853 246.317 32.0051 246.706 30.9106L247.938 31.2612ZM250.095 34.8405C250.714 35.71 251.411 36.8206 251.785 37.5645L250.66 38.1786C250.546 37.9232 250.393 37.605 250.209 37.2706C246.66 37.6131 246.087 37.6435 245.658 37.8219C245.596 37.5807 245.382 36.9605 245.23 36.6261C245.506 36.5491 245.674 36.3768 245.973 36.0363C246.303 35.6938 247.227 34.3602 247.771 33.0468L249.025 33.5819C248.498 34.6074 247.817 35.5843 247.136 36.391L249.59 36.2126C249.398 35.9025 249.206 35.5985 249.031 35.3269L250.095 34.8405ZM249.951 30.8579C250.387 31.7659 251.275 32.8522 252.016 33.5434C251.725 33.7683 251.305 34.2102 251.092 34.5142C250.327 33.669 249.44 32.4408 248.851 31.3079L249.951 30.8579Z" fill="white"/>
<path d="M267.413 36.7882C267.413 37.3942 267.313 37.7266 266.953 37.9212C266.602 38.1157 266.113 38.1461 265.408 38.138C265.378 37.8036 265.208 37.2381 265.056 36.9199C265.438 36.9503 265.929 36.9503 266.073 36.9422C266.21 36.9422 266.264 36.9037 266.264 36.7639V32.2847H260.986V31.2146H267.411V36.7882H267.413ZM265.553 33.667H261.072V32.6881H265.553V33.667ZM262.502 36.8186V37.378H261.416V34.0946H265.224V36.8186H262.502ZM262.502 35.0573V35.8559H264.132V35.0573H262.502Z" fill="white"/>
<path d="M56.8574 11.174C56.8574 5.00247 59.8489 1.51239 64.2503 1.51239C68.6516 1.51239 71.6431 5.02882 71.6431 11.174C71.6431 17.3455 68.6516 21.0382 64.2503 21.0382C59.8489 21.0362 56.8574 17.3434 56.8574 11.174ZM67.6971 11.174C67.6971 7.53187 66.3751 5.38148 64.2503 5.38148C62.1255 5.38148 60.8254 7.53187 60.8254 11.174C60.8254 14.8404 62.1255 17.1428 64.2503 17.1428C66.3751 17.1408 67.6971 14.8404 67.6971 11.174Z" fill="white"/>
<path d="M73.8125 11.174C73.8125 5.00247 76.804 1.51239 81.2053 1.51239C85.6067 1.51239 88.5982 5.02882 88.5982 11.174C88.5982 17.3455 85.6067 21.0382 81.2053 21.0382C76.804 21.0382 73.8125 17.3434 73.8125 11.174ZM84.6521 11.174C84.6521 7.53187 83.3301 5.38148 81.2053 5.38148C79.0806 5.38148 77.7805 7.53187 77.7805 11.174C77.7805 14.8404 79.0806 17.1428 81.2053 17.1428C83.3281 17.1408 84.6521 14.8404 84.6521 11.174Z" fill="white"/>
<path d="M90.7637 11.174C90.7637 5.00247 93.7552 1.51239 98.1565 1.51239C102.558 1.51239 105.549 5.02882 105.549 11.174C105.549 17.3455 102.558 21.0382 98.1565 21.0382C93.7552 21.0362 90.7637 17.3434 90.7637 11.174ZM101.603 11.174C101.603 7.53187 100.281 5.38148 98.1565 5.38148C96.0317 5.38148 94.7317 7.53187 94.7317 11.174C94.7317 14.8404 96.0317 17.1428 98.1565 17.1428C100.281 17.1408 101.603 14.8404 101.603 11.174Z" fill="white"/>
<path d="M112.684 14.966V11.8043L116.023 7.68182L117.432 9.02151L114.721 13.3993L117.43 17.7751L116.021 19.0905L112.684 14.966ZM117.452 14.966V11.8043L120.791 7.68182L122.201 9.02151L119.491 13.3993L122.201 17.7751L120.791 19.0905L117.452 14.966Z" fill="white"/>
<path d="M139.089 20.6815H135.036L130.83 12.7913H129.204V20.6815H125.324V1.865H129.204V9.1735H130.852L132.911 4.87474C134.125 2.39601 135.403 1.51031 137.29 1.51031C137.745 1.51031 138.287 1.56098 138.656 1.76366L138.005 5.8111C137.745 5.70977 137.464 5.70977 137.312 5.70977C136.553 5.70977 136.142 6.08877 135.557 7.32915L133.865 10.6936L139.089 20.6815Z" fill="white"/>
<path d="M140.498 6.29144H144.228V10.0349C144.228 11.4516 144.033 13.373 143.881 15.118H143.967C144.356 14.2586 145.007 12.9433 145.377 12.1083L148.39 6.29144H151.903V20.6815H148.174V16.938C148.174 15.5213 148.37 13.6243 148.522 11.8549H148.436C148.025 12.7143 147.418 14.056 147.026 14.8647L143.991 20.6815H140.5V6.29144H140.498Z" fill="white"/>
<path d="M157.581 9.80788H154.004V6.29144H165.017V9.80788H161.441V20.6835H157.583V9.80788H157.581Z" fill="white"/>
<path d="M166.6 16.6604C166.6 13.6263 168.637 11.9806 173.451 11.3746C173.365 10.2112 172.844 9.52819 171.586 9.52819C170.61 9.52819 169.591 9.98421 168.355 10.7929L167.011 7.83382C168.637 6.69478 170.394 5.93677 172.323 5.93677C175.51 5.93677 177.309 8.01014 177.309 12.5116V20.6815H174.166L173.885 19.2404H173.799C172.78 20.3025 171.63 21.0361 170.264 21.0361C167.988 21.0361 166.6 19.0641 166.6 16.6604ZM173.451 16.409V14.1066C171.045 14.4857 170.264 15.2943 170.264 16.3077C170.264 17.1427 170.785 17.5461 171.586 17.5461C172.367 17.5461 172.888 17.1164 173.451 16.409Z" fill="white"/>
<path d="M180.193 6.29147H183.922V10.0349C183.922 11.4516 183.726 13.373 183.574 15.118H183.66C184.05 14.2587 184.701 12.9433 185.07 12.1083L188.083 6.29147H191.596V20.6815H187.868V16.9381C187.868 15.5213 188.063 13.6243 188.215 11.8549H188.129C187.718 12.7143 187.111 14.056 186.72 14.8647L183.684 20.6815H180.193V6.29147ZM181.689 -0.662354H184.681C184.746 0.930682 185.028 1.73936 186.025 1.73936C187.001 1.73936 187.325 0.930682 187.369 -0.662354H190.338C190.294 2.29672 188.886 4.11675 186.025 4.11675C183.163 4.11675 181.777 2.29672 181.689 -0.662354Z" fill="white"/>
<path d="M194.176 11.3746C194.176 5.10174 197.774 1.51031 201.872 1.51031C203.975 1.51031 205.666 2.64936 206.773 3.9627L204.736 6.84678C203.933 5.98743 203.088 5.3794 201.94 5.3794C199.859 5.3794 198.146 7.55412 198.146 11.2226C198.146 14.966 199.62 17.1407 201.896 17.1407C203.176 17.1407 204.217 16.3827 204.975 15.42L207.012 18.2534C205.646 20.0998 203.847 21.0361 201.744 21.0361C197.645 21.0361 194.176 17.7487 194.176 11.3746Z" fill="white"/>
<path d="M211.651 9.80788H208.074V6.29144H219.088V9.80788H215.511V20.6835H211.653V9.80788H211.651Z" fill="white"/>
<path d="M221.211 6.29145H224.354L224.614 7.68181H224.7C225.676 6.67046 226.888 5.93677 228.168 5.93677C231.116 5.93677 232.981 8.82085 232.981 13.2453C232.981 18.2027 230.445 21.0341 227.799 21.0341C226.759 21.0341 225.762 20.5031 224.937 19.5424L225.045 21.7942V25.9166H221.211V6.29145ZM229.015 13.3223C229.015 10.7929 228.386 9.60521 227.02 9.60521C226.305 9.60521 225.72 9.98421 225.047 10.8192V16.5104C225.654 17.1427 226.305 17.3454 226.89 17.3454C228.063 17.3434 229.015 16.2064 229.015 13.3223Z" fill="white"/>
<path d="M234.697 13.5006C234.697 8.72153 237.603 5.93878 240.746 5.93878C243.867 5.93878 246.773 8.72153 246.773 13.5006C246.773 18.2554 243.867 21.0382 240.746 21.0382C237.601 21.0361 234.697 18.2554 234.697 13.5006ZM242.827 13.5006C242.827 11.0989 242.176 9.58087 240.746 9.58087C239.294 9.58087 238.643 11.0989 238.643 13.5006C238.643 15.878 239.294 17.3961 240.746 17.3961C242.176 17.394 242.827 15.878 242.827 13.5006Z" fill="white"/>
<path d="M249.113 6.29147H252.842V10.0349C252.842 11.4516 252.646 13.373 252.494 15.118H252.58C252.969 14.2587 253.62 12.9433 253.99 12.1083L257.003 6.29147H260.516V20.6815H256.788V16.9381C256.788 15.5213 256.983 13.6243 257.135 11.8549H257.049C256.638 12.7143 256.031 14.056 255.639 14.8647L252.604 20.6815H249.113V6.29147ZM250.609 -0.662354H253.601C253.666 0.930682 253.948 1.73936 254.944 1.73936C255.921 1.73936 256.245 0.930682 256.288 -0.662354H259.258C259.214 2.29672 257.806 4.11675 254.944 4.11675C252.083 4.11675 250.697 2.29672 250.609 -0.662354Z" fill="white"/>
<path d="M263.314 17.7731L266.024 13.3993L263.314 9.02354L264.724 7.68385L268.063 11.8063V14.968L264.724 19.0905L263.314 17.7731ZM268.083 17.7731L270.793 13.3973L268.083 9.02151L269.493 7.68182L272.832 11.8043V14.966L269.493 19.0884L268.083 17.7731Z" fill="white"/>
<path d="M37.6093 -0.0137329H-0.00195312V38.1583H37.6093V-0.0137329Z" fill="#0080CB"/>
<path d="M31.3399 20.2296H29.6305H28.4922V23.7014V29.4838V32.9515H29.6305H31.3399H32.4802V29.4838V27.1692H31.3399V29.4838H29.6305V23.7014H31.3399V26.0139H32.4802V23.7014V20.2296H31.3399Z" fill="white"/>
<path d="M22.2246 5.19098V8.6608V20.2296V23.7014V29.4838V32.9515H23.3629H27.3529V29.4838H23.3629V23.7014H27.3529V20.2296H23.3629V8.6608H27.3529V5.19098H23.3629H22.2246Z" fill="white"/>
<path d="M17.6657 5.19098H16.5254V8.6608V29.4838V31.8267V32.9515H19.9442H21.0845V29.4838V20.2296H19.9442V29.4838H17.6657V8.6608H19.9442V15.0248H21.0845V8.6608V5.19098H19.9442H17.6657Z" fill="white"/>
<path d="M11.3962 5.19098H10.2539V8.6608V20.2296V23.7014H11.3962H14.2459V29.4838H11.3962V27.1692H10.2539V29.4838V32.9515H11.3962H14.2459H15.3862V29.4838V23.7014V20.2296H14.2459H11.3962V8.6608H14.2459V15.0248H15.3862V8.6608V5.19098H14.2459H11.3962Z" fill="white"/>
<path d="M6.26719 20.2296H5.12891V23.7014V29.4838V32.9515H6.26719H7.97661H9.11689V29.4838V27.1692H7.97661V29.4838H6.26719V23.7014H7.97661V26.0139H9.11689V23.7014V20.2296H7.97661H6.26719Z" fill="white"/>
</g>
<defs>
<clipPath id="clip0_0_58">
<rect width="285" height="39" fill="white"/>
</clipPath>
</defs>
</svg>
