<svg width="60" height="75" viewBox="0 0 60 75" fill="none" xmlns="http://www.w3.org/2000/svg">
<g filter="url(#filter0_d_8_6295)">
<path fill-rule="evenodd" clip-rule="evenodd" d="M50 6C50 2.68629 47.3137 0 44 0H16C12.6863 0 10 2.68629 10 6V34C10 37.3137 12.6863 40 16 40H21.2271C22.8042 40 24.3179 40.6209 25.4406 41.7284L27.8641 44.119C29.0437 45.2826 30.9561 45.2826 32.1357 44.119L34.5592 41.7284C35.682 40.6209 37.1957 40 38.7727 40H44C47.3137 40 50 37.3137 50 34V6Z" fill="#A5D820"/>
</g>
<path d="M32.4099 14.5301C32.0963 14.5993 31.7715 14.6003 31.4575 14.5331C31.1434 14.4658 30.8476 14.3317 30.5899 14.1401C30.4186 14.0149 30.212 13.9475 29.9999 13.9475C29.7878 13.9475 29.5811 14.0149 29.4099 14.1401C29.1522 14.3317 28.8563 14.4658 28.5423 14.5331C28.2283 14.6003 27.9035 14.5993 27.5899 14.5301C27.4438 14.4985 27.2925 14.5001 27.1472 14.5347C27.0018 14.5693 26.8661 14.6361 26.7499 14.7301C26.6339 14.8242 26.5404 14.9431 26.4764 15.0781C26.4123 15.2131 26.3794 15.3607 26.3799 15.5101V18.4101C26.3729 19.0528 26.5156 19.6883 26.7968 20.2663C27.078 20.8443 27.4899 21.3489 27.9999 21.7401L29.3699 22.7401C29.5411 22.8652 29.7478 22.9327 29.9599 22.9327C30.172 22.9327 30.3786 22.8652 30.5499 22.7401L31.9199 21.7401C32.4372 21.353 32.8568 20.8503 33.1451 20.2721C33.4333 19.6938 33.5822 19.0562 33.5799 18.4101V15.5101C33.5804 15.3607 33.5474 15.2131 33.4834 15.0781C33.4194 14.9431 33.3259 14.8242 33.2099 14.7301C33.0984 14.6418 32.9694 14.5783 32.8315 14.5438C32.6935 14.5093 32.5498 14.5046 32.4099 14.5301ZM31.6199 18.4101C31.6226 18.7447 31.5472 19.0753 31.3996 19.3757C31.2521 19.676 31.0364 19.9377 30.7699 20.1401L29.9999 20.7101L29.2299 20.1401C28.9633 19.9377 28.7477 19.676 28.6001 19.3757C28.4526 19.0753 28.3772 18.7447 28.3799 18.4101V16.5701C28.9446 16.5302 29.4955 16.3772 29.9999 16.1201C30.5042 16.3772 31.0552 16.5302 31.6199 16.5701V18.4101ZM38.4599 17.6301C38.3195 16.169 37.8031 14.7691 36.9611 13.5669C36.119 12.3646 34.98 11.4009 33.6549 10.7696C32.3298 10.1382 30.8638 9.86079 29.3996 9.96427C27.9354 10.0678 26.523 10.5486 25.2999 11.3601C24.2491 12.0627 23.3669 12.9894 22.7168 14.0735C22.0667 15.1575 21.6648 16.3722 21.5399 17.6301C21.4174 18.8797 21.5746 20.141 22.0001 21.3223C22.4255 22.5037 23.1087 23.5755 23.9999 24.4601L29.2999 29.7701C29.3928 29.8638 29.5034 29.9382 29.6253 29.989C29.7472 30.0397 29.8779 30.0659 30.0099 30.0659C30.1419 30.0659 30.2726 30.0397 30.3945 29.989C30.5163 29.9382 30.6269 29.8638 30.7199 29.7701L35.9999 24.4601C36.8911 23.5755 37.5742 22.5037 37.9997 21.3223C38.4252 20.141 38.5824 18.8797 38.4599 17.6301ZM34.5999 23.0501L29.9999 27.6501L25.3999 23.0501C24.722 22.3721 24.2027 21.5524 23.8793 20.6498C23.556 19.7473 23.4367 18.7843 23.5299 17.8301C23.6237 16.8612 23.9316 15.9252 24.4315 15.0899C24.9313 14.2546 25.6104 13.5408 26.4199 13.0001C27.4808 12.2953 28.7262 11.9194 29.9999 11.9194C31.2736 11.9194 32.5189 12.2953 33.5799 13.0001C34.3869 13.5387 35.0646 14.2493 35.5642 15.081C36.0639 15.9127 36.3732 16.8447 36.4699 17.8101C36.5661 18.7675 36.4483 19.7343 36.1249 20.6406C35.8014 21.5469 35.2805 22.3699 34.5999 23.0501Z" fill="#D7FB7A"/>
<defs>
<filter id="filter0_d_8_6295" x="0" y="0" width="60" height="74.9917" filterUnits="userSpaceOnUse" color-interpolation-filters="sRGB">
<feFlood flood-opacity="0" result="BackgroundImageFix"/>
<feColorMatrix in="SourceAlpha" type="matrix" values="0 0 0 0 0 0 0 0 0 0 0 0 0 0 0 0 0 0 127 0" result="hardAlpha"/>
<feMorphology radius="10" operator="erode" in="SourceAlpha" result="effect1_dropShadow_8_6295"/>
<feOffset dy="20"/>
<feGaussianBlur stdDeviation="10"/>
<feComposite in2="hardAlpha" operator="out"/>
<feColorMatrix type="matrix" values="0 0 0 0 0.442166 0 0 0 0 0.554167 0 0 0 0 0.150087 0 0 0 0.2 0"/>
<feBlend mode="normal" in2="BackgroundImageFix" result="effect1_dropShadow_8_6295"/>
<feBlend mode="normal" in="SourceGraphic" in2="effect1_dropShadow_8_6295" result="shape"/>
</filter>
</defs>
</svg>
