<svg width="24" height="24" viewBox="0 0 24 24" fill="none" xmlns="http://www.w3.org/2000/svg">
<path d="M14.4104 6.52994C14.0968 6.5992 13.772 6.60022 13.4579 6.53293C13.1439 6.46564 12.848 6.33162 12.5904 6.13994C12.4191 6.01479 12.2125 5.94735 12.0004 5.94735C11.7883 5.94735 11.5816 6.01479 11.4104 6.13994C11.1527 6.33162 10.8568 6.46564 10.5428 6.53293C10.2288 6.60022 9.90396 6.5992 9.59037 6.52994C9.44431 6.4984 9.29304 6.49999 9.14767 6.53461C9.00231 6.56922 8.86655 6.63596 8.75037 6.72994C8.63435 6.82406 8.54089 6.94298 8.47686 7.07796C8.41283 7.21294 8.37986 7.36055 8.38037 7.50994V10.4099C8.37336 11.0527 8.51611 11.6882 8.79729 12.2662C9.07847 12.8442 9.49038 13.3487 10.0004 13.7399L11.3704 14.7399C11.5416 14.8651 11.7483 14.9325 11.9604 14.9325C12.1725 14.9325 12.3791 14.8651 12.5504 14.7399L13.9204 13.7399C14.4377 13.3529 14.8573 12.8502 15.1455 12.2719C15.4338 11.6937 15.5827 11.056 15.5804 10.4099V7.50994C15.5809 7.36055 15.5479 7.21294 15.4839 7.07796C15.4198 6.94298 15.3264 6.82406 15.2104 6.72994C15.0989 6.64164 14.9699 6.57813 14.8319 6.54364C14.694 6.50915 14.5503 6.50448 14.4104 6.52994ZM13.6204 10.4099C13.6231 10.7446 13.5477 11.0752 13.4001 11.3755C13.2525 11.6759 13.0369 11.9376 12.7704 12.1399L12.0004 12.7099L11.2304 12.1399C10.9638 11.9376 10.7482 11.6759 10.6006 11.3755C10.4531 11.0752 10.3776 10.7446 10.3804 10.4099V8.56994C10.9451 8.53012 11.496 8.37709 12.0004 8.11994C12.5047 8.37709 13.0557 8.53012 13.6204 8.56994V10.4099ZM20.4604 9.62994C20.32 8.16886 19.8036 6.76903 18.9616 5.56676C18.1195 4.3645 16.9805 3.40077 15.6554 2.76944C14.3303 2.1381 12.8642 1.86066 11.4001 1.96415C9.93592 2.06763 8.5235 2.5485 7.30037 3.35994C6.24957 4.06259 5.36742 4.98924 4.71731 6.07333C4.0672 7.15743 3.66526 8.37205 3.54037 9.62994C3.41785 10.8796 3.57504 12.1409 4.00054 13.3222C4.42604 14.5036 5.10917 15.5754 6.00037 16.4599L11.3004 21.7699C11.3933 21.8637 11.5039 21.9381 11.6258 21.9888C11.7477 22.0396 11.8784 22.0657 12.0104 22.0657C12.1424 22.0657 12.2731 22.0396 12.3949 21.9888C12.5168 21.9381 12.6274 21.8637 12.7204 21.7699L18.0004 16.4599C18.8916 15.5754 19.5747 14.5036 20.0002 13.3222C20.4257 12.1409 20.5829 10.8796 20.4604 9.62994ZM16.6004 15.0499L12.0004 19.6499L7.40037 15.0499C6.72246 14.372 6.20317 13.5523 5.87984 12.6497C5.5565 11.7471 5.43715 10.7841 5.53037 9.82994C5.62419 8.86105 5.93213 7.9251 6.43194 7.08979C6.93175 6.25447 7.61093 5.54065 8.42037 4.99994C9.48131 4.29518 10.7267 3.91924 12.0004 3.91924C13.2741 3.91924 14.5194 4.29518 15.5804 4.99994C16.3874 5.53856 17.065 6.24922 17.5647 7.08088C18.0644 7.91254 18.3737 8.84454 18.4704 9.80994C18.5666 10.7674 18.4488 11.7342 18.1254 12.6405C17.8019 13.5468 17.281 14.3698 16.6004 15.0499Z" fill="white"/>
</svg>
