<svg width="24" height="24" viewBox="0 0 24 24" fill="none" xmlns="http://www.w3.org/2000/svg">
<path d="M14.4875 19.3109L12.9972 20.8011C12.8595 20.94 12.6941 21.0486 12.5118 21.1198C12.3295 21.191 12.1343 21.2234 11.9386 21.2148C11.7429 21.2061 11.5511 21.1568 11.3755 21.0698C11.1999 20.9828 11.0443 20.8601 10.9186 20.7096C9.5531 19.0118 8.60419 17.0182 8.14816 14.889C7.70822 12.9237 7.7062 10.8864 8.14224 8.92198C8.59699 6.78485 9.54897 4.78588 10.9211 3.08702C11.046 2.93721 11.2008 2.81512 11.3756 2.72852C11.5505 2.64192 11.7415 2.5927 11.9365 2.58401C12.1316 2.57531 12.3264 2.60733 12.5085 2.67802C12.6907 2.74871 12.8562 2.85653 12.9945 2.9946L14.4877 4.48783C14.7317 4.72702 14.8805 5.04657 14.9064 5.38692C14.9324 5.72728 14.8337 6.06521 14.6288 6.33774C14.2149 6.87769 13.8635 7.46285 13.5813 8.08205C13.4705 8.32682 13.2918 8.53455 13.0663 8.68062C12.8408 8.82669 12.5781 8.90499 12.3092 8.90623L11.0462 8.90497C10.5111 10.8572 10.5131 12.9187 11.0521 14.872L12.3151 14.8732C12.584 14.875 12.8469 14.9538 13.0727 15.1003C13.2984 15.2469 13.4776 15.4549 13.5889 15.6999C13.8723 16.3197 14.2248 16.9056 14.6398 17.4463C14.8476 17.7222 14.9468 18.0645 14.9187 18.4083C14.8907 18.7521 14.7372 19.0733 14.4875 19.3109Z" stroke="#A5D820" stroke-width="2" stroke-linecap="round" stroke-linejoin="round"/>
</svg>
