<svg width="18" height="18" viewBox="0 0 18 18" fill="none" xmlns="http://www.w3.org/2000/svg">
<path d="M15.5402 6.00003L5.88021 0.460026C5.3575 0.158186 4.76421 6.39946e-05 4.16061 0.00172189C3.557 0.00337978 2.96459 0.164758 2.44354 0.469465C1.92249 0.774173 1.49137 1.21135 1.19396 1.7366C0.89655 2.26185 0.743452 2.85646 0.750215 3.46003V14.58C0.750215 15.4871 1.11053 16.357 1.75191 16.9983C2.39328 17.6397 3.26317 18 4.17021 18C4.77065 17.999 5.3603 17.8404 5.88021 17.54L15.5402 12C16.0593 11.6996 16.4902 11.268 16.7898 10.7485C17.0894 10.2289 17.2471 9.63975 17.2471 9.04003C17.2471 8.4403 17.0894 7.85112 16.7898 7.33159C16.4902 6.81206 16.0593 6.38044 15.5402 6.08003V6.00003ZM14.5402 10.19L4.88021 15.81C4.6637 15.9327 4.41908 15.9972 4.17021 15.9972C3.92135 15.9972 3.67673 15.9327 3.46021 15.81C3.24431 15.6854 3.06503 15.5061 2.9404 15.2902C2.81576 15.0743 2.75017 14.8293 2.75021 14.58V3.42003C2.75017 3.17072 2.81576 2.9258 2.9404 2.70989C3.06503 2.49397 3.24431 2.31468 3.46021 2.19003C3.67762 2.06918 3.92151 2.00392 4.17021 2.00003C4.41875 2.00513 4.66235 2.07032 4.88021 2.19003L14.5402 7.77003C14.7562 7.89462 14.9356 8.0739 15.0603 8.28981C15.185 8.50573 15.2506 8.75068 15.2506 9.00003C15.2506 9.24937 15.185 9.49432 15.0603 9.71024C14.9356 9.92616 14.7562 10.1054 14.5402 10.23V10.19Z" fill="white"/>
</svg>
