<svg width="114" height="113" viewBox="0 0 114 113" fill="none" xmlns="http://www.w3.org/2000/svg">
<rect x="0.707474" width="69" height="69" rx="9.5" transform="matrix(0.707474 -0.706739 0.707474 0.706739 7.74016 56.4709)" fill="white" stroke="#E8E8E8"/>
<path d="M40.6239 55.5906C40.6715 55.468 40.7429 55.356 40.834 55.261L47.8376 48.2688C47.9309 48.1757 48.0417 48.1018 48.1635 48.0514C48.2854 48.001 48.4161 47.9751 48.548 47.9751C48.8144 47.9751 49.07 48.0807 49.2584 48.2688C49.3516 48.3619 49.4256 48.4724 49.4761 48.5941C49.5266 48.7158 49.5526 48.8462 49.5526 48.9778C49.5526 49.2438 49.4468 49.4988 49.2584 49.6869L43.9556 54.9714H71.5599C71.8253 54.9714 72.0798 55.0766 72.2674 55.2639C72.4551 55.4512 72.5605 55.7052 72.5605 55.9701C72.5605 56.2349 72.4551 56.489 72.2674 56.6762C72.0798 56.8635 71.8253 56.9687 71.5599 56.9687H43.9556L49.2584 62.2533C49.3521 62.3461 49.4266 62.4566 49.4774 62.5783C49.5282 62.7 49.5543 62.8305 49.5543 62.9623C49.5543 63.0942 49.5282 63.2247 49.4774 63.3464C49.4266 63.4681 49.3521 63.5785 49.2584 63.6714C49.1654 63.765 49.0547 63.8393 48.9328 63.89C48.8108 63.9407 48.6801 63.9668 48.548 63.9668C48.4159 63.9668 48.2851 63.9407 48.1632 63.89C48.0413 63.8393 47.9306 63.765 47.8376 63.6714L40.834 56.6791C40.7429 56.5842 40.6715 56.4722 40.6239 56.3496C40.5238 56.1064 40.5238 55.8337 40.6239 55.5906Z" fill="#21292F"/>
</svg>
